<?xml version="1.0" standalone="no"?>
<!DOCTYPE svg PUBLIC "-//W3C//DTD SVG 20010904//EN"
 "http://www.w3.org/TR/2001/REC-SVG-20010904/DTD/svg10.dtd">
<svg version="1.0" xmlns="http://www.w3.org/2000/svg"
 width="1200.000000pt" height="1200.000000pt" viewBox="0 0 1200.000000 1200.000000"
 preserveAspectRatio="xMidYMid meet">
<metadata>
Created by potrace 1.14, written by Peter Selinger 2001-2017
</metadata>
<g transform="translate(0.000000,1200.000000) scale(0.100000,-0.100000)"
fill="#000000" stroke="none">
<path d="M0 6000 l0 -6000 6000 0 6000 0 0 6000 0 6000 -6000 0 -6000 0 0
-6000z m5886 4708 c-8 -48 11 -59 53 -29 16 12 34 21 41 21 20 0 49 -43 56
-82 4 -21 9 -38 13 -38 3 1 17 14 31 30 29 36 60 38 115 10 22 -11 44 -20 50
-20 6 0 17 -15 23 -34 10 -26 27 -43 69 -66 49 -28 64 -32 110 -28 49 4 54 3
59 -19 4 -13 11 -27 18 -31 23 -15 48 -73 41 -99 -6 -25 -7 -25 -75 -19 -46 5
-70 3 -75 -4 -4 -6 -19 -11 -33 -10 -63 4 -65 3 -58 -40 3 -22 3 -39 -1 -38
-5 1 -23 -2 -41 -6 -22 -5 -38 -4 -45 3 -6 6 -19 11 -28 11 -19 0 -29 20 -29
59 0 26 -5 29 -62 43 -54 12 -81 14 -130 9 -5 -1 -8 -9 -8 -20 0 -10 -9 -30
-21 -45 -16 -21 -37 -106 -39 -158 0 -5 -13 -8 -28 -8 -27 0 -72 37 -72 59 0
5 -10 11 -22 13 -12 2 -28 14 -35 28 -7 14 -13 21 -13 16 0 -5 -8 -3 -17 6
-10 8 -30 19 -45 25 -17 8 -30 25 -38 50 -7 21 -17 41 -22 44 -6 4 -12 27 -14
51 -3 38 2 54 31 99 19 30 40 66 47 81 6 15 20 29 30 31 10 3 18 13 18 22 0
23 38 75 55 75 8 0 22 11 31 24 15 25 41 37 58 28 4 -2 5 -22 2 -44z m-743
-118 c31 -11 61 -20 66 -20 5 0 11 9 14 20 3 13 14 20 30 20 24 0 89 -41 115
-73 10 -12 24 -15 55 -11 37 5 46 1 75 -27 27 -25 32 -37 27 -56 -12 -50 -35
-73 -72 -73 -29 0 -36 -5 -44 -30 -7 -18 -27 -39 -54 -55 -49 -28 -70 -31 -78
-11 -3 8 -21 22 -41 31 -23 11 -39 29 -49 53 -8 20 -27 48 -41 61 -14 14 -26
28 -26 33 0 12 -63 67 -77 68 -7 0 -13 4 -13 8 0 4 -13 13 -30 19 -40 15 -42
50 -2 56 59 9 90 6 145 -13z m-888 -156 l50 -20 3 -237 c1 -130 1 -237 -1
-237 -2 0 -17 7 -34 15 -47 23 -142 30 -183 13 -53 -23 -98 -65 -128 -122 -25
-47 -27 -62 -30 -199 l-4 -148 29 8 c32 8 42 8 135 0 50 -5 67 -3 71 7 11 27
146 37 176 13 12 -9 13 -9 7 1 -5 8 1 12 19 12 22 0 25 -3 20 -20 -5 -15 -2
-20 12 -18 69 6 110 -12 61 -26 l-23 -7 25 -11 c14 -6 33 -10 43 -9 9 1 17 -3
17 -8 0 -6 5 -11 11 -11 7 0 9 10 5 26 -5 20 -4 25 7 21 10 -4 13 1 9 19 -2
14 0 24 7 24 6 0 11 -4 11 -10 0 -5 6 -10 14 -10 24 0 30 -22 11 -36 -27 -20
-12 -44 24 -39 30 3 56 -15 33 -23 -7 -2 -12 -8 -12 -13 0 -6 5 -7 11 -3 10 6
28 -11 29 -28 0 -3 -13 -9 -29 -13 -16 -3 -35 -13 -41 -21 -31 -36 -164 -42
-158 -7 2 9 -3 18 -9 20 -7 3 -13 0 -13 -7 0 -8 -6 -8 -20 0 -13 7 -20 7 -20
1 0 -6 -11 -21 -24 -35 -24 -27 -50 -33 -61 -16 -3 6 -17 10 -31 10 -24 0 -24
0 -24 -110 0 -93 3 -112 16 -117 10 -4 20 0 26 10 5 10 17 17 27 17 29 0 128
-47 139 -65 7 -13 17 2 49 68 90 187 199 292 368 353 180 66 447 45 596 -46
26 -16 57 -30 70 -32 20 -2 24 1 22 19 -3 28 33 54 78 58 18 1 35 8 39 16 7
11 -1 13 -38 11 -32 -2 -43 0 -33 6 10 7 12 21 8 46 -5 31 -3 36 15 36 18 0
19 -4 13 -40 -6 -35 -5 -40 13 -40 11 0 30 9 43 20 l24 19 -26 1 c-31 0 -50
40 -21 40 10 0 30 14 46 30 31 32 52 39 42 15 -3 -8 -8 -21 -11 -27 -4 -9 9
-14 41 -16 l47 -3 -7 32 c-5 27 -4 30 9 19 8 -7 15 -21 15 -31 0 -21 16 -26
22 -7 3 7 10 8 17 4 10 -7 10 -10 1 -16 -9 -6 -8 -15 6 -36 24 -38 34 -44 64
-43 58 4 91 -1 84 -13 -5 -7 -3 -8 5 -3 7 4 11 16 8 26 -5 19 2 23 36 20 9 -1
17 3 17 8 0 6 5 11 11 11 7 0 9 -10 7 -25 -4 -20 -2 -23 7 -15 8 7 16 7 19 2
10 -16 116 -12 123 4 3 8 11 14 19 14 7 0 16 11 20 25 7 29 19 32 32 9 18 -31
23 5 7 40 -21 43 -16 70 12 74 11 2 23 12 26 23 6 22 32 25 41 4 4 -12 11 -11
41 8 27 17 34 27 30 45 -3 12 1 32 8 43 14 19 15 18 21 -13 4 -18 10 -28 14
-22 4 6 15 13 25 17 12 5 17 15 15 29 -2 15 2 23 12 23 10 0 15 -10 15 -27 0
-34 9 -42 25 -23 12 14 40 21 40 10 0 -3 -12 -17 -26 -30 l-27 -25 44 1 c24 0
38 3 32 6 -7 2 -13 10 -13 16 0 8 23 13 61 14 53 2 62 0 66 -17 10 -36 53 -33
50 5 -2 17 5 19 81 20 73 1 83 -1 79 -15 -3 -13 1 -16 19 -12 27 5 33 22 8 22
-12 0 -10 6 9 21 21 16 38 20 82 17 37 -2 57 -8 61 -18 5 -11 8 -9 13 9 9 34
27 37 35 7 4 -17 11 -23 20 -20 9 3 20 -3 28 -15 7 -12 18 -21 25 -21 12 0 36
36 49 73 5 13 14 17 30 14 13 -2 24 -1 24 3 0 13 38 -1 44 -16 4 -9 21 -14 51
-14 25 0 45 -5 45 -10 0 -6 -7 -10 -16 -8 -9 2 -21 -5 -27 -14 -9 -14 -7 -24
11 -47 12 -17 22 -35 22 -40 0 -7 9 -7 26 -1 19 7 31 7 40 -1 8 -6 21 -9 29
-5 10 4 15 -1 15 -16 0 -12 3 -19 6 -16 3 3 20 -7 37 -24 19 -17 39 -27 50
-24 14 3 16 0 12 -15 -9 -26 7 -24 35 6 17 18 27 22 34 14 8 -7 5 -16 -11 -29
-20 -16 -21 -19 -6 -24 10 -4 23 1 35 14 21 23 32 26 25 8 -7 -21 12 -48 33
-48 11 0 24 -9 30 -20 6 -11 17 -20 25 -20 8 0 15 -7 15 -15 0 -8 -4 -15 -9
-15 -5 0 -11 -12 -13 -27 -2 -19 -12 -32 -30 -41 -16 -7 -28 -17 -28 -23 0 -5
-7 -9 -15 -9 -8 0 -15 -4 -15 -10 0 -16 19 -12 42 10 12 11 30 20 40 20 11 0
15 5 12 15 -4 8 -1 15 5 15 6 0 11 -4 11 -10 0 -5 3 -9 8 -9 38 6 45 -31 10
-50 -23 -11 -23 -11 2 -6 14 2 33 5 43 5 11 0 17 8 17 25 0 29 8 32 26 8 11
-17 13 -16 23 10 11 29 26 35 34 15 4 -9 8 -10 14 -2 8 12 47 34 58 34 4 0 5
-6 2 -13 -3 -8 -2 -19 2 -26 9 -14 49 -1 76 25 17 17 17 17 11 -2 -4 -14 0
-27 14 -39 19 -17 21 -17 40 0 19 18 20 17 20 -3 0 -19 6 -22 40 -22 24 0 40
-5 40 -12 0 -9 3 -9 12 0 17 17 47 15 54 -3 5 -12 8 -12 20 0 8 7 14 19 14 25
0 6 5 8 11 4 8 -4 8 -9 0 -17 -18 -18 -13 -37 9 -37 11 0 20 6 20 14 0 8 5 18
11 22 8 5 10 -1 7 -20 -4 -21 -1 -26 14 -26 14 0 18 5 14 16 -3 9 -3 14 1 12
5 -3 23 -10 41 -17 34 -14 35 -19 16 -65 -6 -16 -4 -18 12 -11 47 19 62 18 66
-6 2 -13 9 -25 16 -25 6 -1 17 -2 22 -3 16 -2 12 -20 -10 -44 -15 -15 -17 -23
-8 -26 6 -2 14 1 16 7 2 6 10 8 19 5 8 -3 19 0 23 7 5 9 15 1 33 -25 23 -34
26 -35 32 -16 3 12 3 30 0 41 -4 11 -2 20 4 20 6 0 11 -9 11 -19 0 -10 6 -21
14 -24 11 -5 13 -19 9 -61 -6 -55 -5 -56 21 -56 23 0 26 4 26 38 0 20 5 44 11
52 9 12 10 12 5 -3 -3 -10 -6 -36 -6 -58 0 -30 -4 -39 -17 -39 -15 0 -14 -2 3
-15 27 -20 36 -19 29 5 -5 17 -2 20 20 20 16 0 24 -4 20 -11 -9 -13 15 -70 26
-64 4 3 17 -4 27 -15 14 -16 27 -20 48 -15 16 3 23 2 17 -1 -7 -3 -13 -12 -13
-19 0 -8 -10 -21 -22 -29 l-22 -16 22 0 c12 0 22 4 22 9 0 5 9 7 20 4 15 -4
17 -9 10 -23 -19 -35 -11 -57 24 -74 23 -11 35 -25 39 -45 4 -18 14 -30 28
-34 22 -6 22 -7 4 -27 -14 -16 -15 -20 -4 -20 8 0 19 4 24 9 6 5 18 1 29 -10
19 -19 19 -19 -7 -19 -15 0 -27 -4 -27 -9 0 -5 -3 -17 -6 -26 -5 -13 -2 -16
17 -13 19 2 25 -2 27 -20 3 -19 6 -21 18 -11 11 9 17 9 28 0 11 -9 15 -9 19 1
3 7 2 -14 -1 -46 -4 -43 -2 -57 6 -52 7 4 12 14 12 22 0 8 4 14 9 14 6 0 9
-12 8 -27 -2 -22 3 -29 21 -31 12 -2 22 -6 22 -9 0 -19 -37 -83 -47 -83 -7 0
-13 -5 -13 -11 0 -5 -4 -8 -9 -5 -13 8 -45 -20 -37 -32 10 -17 26 -15 26 3 0
8 5 15 10 15 6 0 10 -16 10 -36 0 -19 7 -43 16 -51 10 -11 14 -26 10 -45 -5
-23 -2 -28 14 -28 12 0 20 7 20 18 0 14 2 14 9 3 6 -10 5 -18 -4 -25 -7 -6
-15 -20 -17 -30 -4 -27 -28 -33 -28 -7 0 12 -6 21 -15 21 -8 0 -15 -6 -15 -14
0 -8 -11 -23 -25 -34 l-25 -20 24 2 c13 0 22 4 20 8 -9 14 14 17 32 3 18 -13
18 -14 2 -20 -10 -4 -18 -13 -18 -21 0 -7 -9 -18 -20 -24 -11 -6 -20 -21 -20
-33 1 -20 2 -21 14 -4 19 25 26 21 26 -13 0 -27 3 -30 30 -30 21 0 30 -5 30
-16 0 -11 -5 -14 -17 -9 -57 23 -76 24 -90 7 -7 -9 -12 -32 -10 -49 2 -23 -1
-33 -11 -33 -9 0 -5 -7 9 -19 23 -19 24 -19 5 -40 -11 -12 -26 -21 -33 -21 -8
0 -23 -10 -34 -22 l-18 -23 -1 23 c0 12 -2 22 -4 22 -2 0 -11 3 -20 6 -13 5
-16 -2 -17 -42 -1 -47 -1 -48 -13 -21 -13 29 -26 27 -26 -5 0 -10 -6 -18 -12
-18 -7 -1 -2 -10 11 -21 13 -11 30 -18 36 -15 8 3 12 -6 11 -25 -1 -16 -4 -29
-8 -29 -5 0 -8 3 -8 8 0 4 -14 8 -31 8 -29 2 -29 1 -10 -13 22 -15 28 -33 11
-33 -6 0 -22 -11 -36 -25 -14 -14 -20 -25 -14 -25 5 0 10 -7 10 -15 0 -8 -4
-15 -10 -15 -14 0 -64 23 -73 35 -5 6 -7 3 -3 -7 3 -10 1 -20 -4 -23 -10 -6
-8 -45 4 -63 4 -7 4 -16 1 -22 -3 -5 -2 -18 3 -27 5 -10 7 -23 5 -29 -4 -13
-53 -6 -53 7 0 5 -7 9 -15 9 -8 0 -15 -4 -15 -9 0 -5 -7 -11 -15 -13 -10 -2
-12 -7 -5 -18 9 -13 11 -13 19 0 6 8 11 12 13 10 2 -3 9 -16 16 -29 13 -22 12
-23 -6 -19 -17 5 -22 0 -27 -23 -4 -16 -13 -29 -21 -29 -19 0 -18 19 1 26 18
7 20 30 3 37 -7 2 -22 1 -33 -4 -16 -6 -16 -8 -3 -8 14 -1 15 -5 5 -31 -7 -18
-21 -33 -34 -36 -15 -4 -20 -11 -16 -22 4 -13 3 -14 -5 -4 -17 25 -47 10 -50
-25 -2 -23 -7 -30 -18 -26 -8 3 -21 2 -30 -1 -15 -6 -15 -8 2 -28 14 -15 16
-22 6 -25 -19 -7 -14 -31 8 -38 11 -4 17 -11 14 -17 -4 -6 -10 -5 -16 3 -8 11
-11 11 -15 1 -8 -21 -33 6 -33 37 0 19 -3 22 -9 12 -5 -8 -7 -20 -4 -28 3 -8
-2 -13 -16 -13 -12 0 -21 5 -21 11 0 5 -5 7 -12 3 -9 -6 -9 -9 0 -12 17 -5 15
-22 -3 -22 -8 0 -15 5 -15 10 0 6 -5 10 -11 10 -5 0 -7 -4 -4 -10 3 -5 0 -10
-8 -10 -8 0 -26 -9 -40 -20 -26 -21 -97 -28 -97 -10 0 6 -7 10 -15 10 -8 0
-15 -4 -15 -10 0 -5 0 -13 -1 -17 0 -5 10 -11 23 -15 16 -4 8 -6 -24 -7 -56
-1 -66 -21 -10 -21 33 0 83 -18 57 -21 -37 -3 -122 4 -129 12 -6 5 -17 9 -25
9 -9 0 -29 7 -45 15 -33 17 -56 19 -56 5 0 -5 -8 -10 -17 -10 -14 0 -14 -3 -5
-12 10 -10 15 -10 21 1 11 16 45 7 39 -11 -2 -6 -20 -17 -39 -23 -19 -7 -28
-14 -20 -16 12 -4 11 -9 -3 -31 -14 -21 -21 -24 -49 -19 -19 4 -33 14 -35 24
-4 19 24 24 30 6 2 -7 9 -5 17 5 12 14 8 16 -45 17 -47 0 -54 2 -36 10 13 5
20 13 17 19 -13 21 -32 8 -44 -30 -6 -22 -16 -40 -21 -40 -6 0 -10 -9 -10 -20
0 -11 -5 -20 -11 -20 -7 0 -8 11 -4 31 8 36 -13 95 -28 80 -7 -7 -6 -15 3 -26
7 -8 10 -18 6 -22 -3 -3 -6 -2 -6 3 0 5 -28 10 -61 12 -59 3 -61 2 -56 -18 7
-28 -31 -44 -67 -27 -30 14 -32 20 -11 37 13 11 12 14 -11 26 -34 18 -44 18
-44 0 0 -29 -46 -65 -98 -76 -38 -9 -49 -15 -45 -26 4 -10 0 -12 -11 -8 -9 3
-16 1 -16 -5 0 -6 -7 -11 -15 -11 -8 0 -21 -15 -30 -34 -17 -35 -41 -48 -75
-39 -13 4 -20 14 -20 30 0 15 -7 27 -18 29 -9 3 -26 19 -36 37 -11 19 -21 27
-23 20 -7 -19 -31 -16 -60 6 -13 11 -31 17 -38 15 -8 -3 -30 -1 -50 6 -28 9
-39 9 -52 -1 -13 -11 -19 -9 -39 14 -13 15 -28 27 -34 27 -5 0 -10 7 -10 15 0
21 -17 19 -30 -5 -9 -16 -8 -20 5 -20 8 0 15 -4 15 -10 0 -5 -7 -10 -15 -10
-14 0 -19 11 -16 37 1 7 -7 22 -18 34 -16 18 -22 19 -39 8 -18 -11 -29 -9 -80
18 -36 19 -64 28 -72 23 -10 -6 -7 -9 11 -13 22 -4 22 -4 2 -6 -12 0 -29 6
-37 15 -9 8 -16 11 -16 6 0 -9 -44 -24 -73 -26 -4 -1 -11 -7 -15 -13 -5 -7
-21 -14 -38 -17 -16 -2 -37 -7 -47 -11 -9 -4 -25 -4 -35 1 -24 10 -205 5 -216
-6 -6 -6 -32 -10 -58 -10 -26 0 -48 -4 -48 -9 0 -5 -13 -12 -30 -16 -35 -8
-39 -21 -9 -30 12 -4 18 -10 13 -14 -5 -3 -10 -28 -12 -56 -1 -27 -7 -54 -12
-59 -6 -6 -10 -26 -10 -46 0 -20 -5 -41 -12 -48 -8 -8 -8 -15 1 -26 10 -12 10
-21 -2 -45 -8 -16 -21 -53 -28 -81 l-13 -52 47 -45 c42 -39 47 -49 47 -87 0
-24 -6 -61 -14 -83 -15 -43 -12 -54 20 -71 12 -6 32 -39 47 -79 34 -87 35
-104 1 -72 -30 28 -76 27 -105 -2 -10 -10 -16 -19 -13 -19 4 0 0 -7 -7 -16
-10 -12 -23 -14 -51 -10 -35 6 -39 4 -49 -21 -10 -27 -11 -27 -24 -9 -8 10
-12 23 -9 28 3 5 -3 12 -15 15 -17 4 -21 13 -21 44 0 28 5 42 17 46 9 4 19 1
21 -5 7 -21 21 -13 24 15 2 14 9 29 17 31 10 3 13 -2 9 -23 -5 -25 -3 -27 22
-23 20 3 27 1 23 -9 -9 -23 13 -14 26 11 15 26 6 55 -11 38 -6 -6 -17 -8 -24
-5 -16 6 -19 43 -4 43 6 0 10 9 10 20 0 11 7 20 15 20 8 0 15 7 15 15 0 20
-15 19 -35 -2 -10 -9 -24 -17 -34 -18 -32 -4 -51 -17 -51 -36 0 -10 -7 -19
-15 -19 -12 0 -11 7 6 36 14 27 17 39 9 44 -9 5 -9 17 -1 46 8 30 8 41 -3 53
-19 22 -76 120 -76 131 0 5 9 18 20 28 20 18 20 19 -10 52 -17 18 -30 34 -30
34 0 1 4 16 10 35 8 29 6 40 -12 69 -18 29 -22 32 -30 18 -12 -21 -52 -22 -44
0 6 16 -19 74 -38 86 -6 4 -8 8 -4 8 13 0 -39 50 -53 50 -9 1 -7 4 5 11 10 6
14 14 9 18 -17 11 -42 71 -32 77 5 3 9 0 9 -7 0 -7 2 -10 5 -8 2 3 1 15 -2 28
-5 22 -7 22 -18 7 -11 -14 -13 -11 -19 24 -5 34 -9 39 -30 38 -19 -2 -30 -14
-46 -49 -21 -45 -22 -47 -5 -73 10 -15 19 -47 19 -72 1 -49 3 -51 32 -29 10 8
22 15 27 15 11 0 9 -48 -3 -55 -17 -11 -11 -31 13 -43 17 -8 18 -11 5 -11 -14
-1 -18 -10 -18 -41 l0 -40 66 1 c36 1 68 -2 71 -5 4 -3 1 -17 -6 -30 -11 -19
-11 -31 -1 -61 7 -20 10 -45 7 -55 -5 -19 10 -30 43 -30 10 0 20 -9 23 -20 3
-11 1 -18 -3 -15 -5 3 -11 1 -14 -4 -3 -5 1 -12 10 -15 8 -3 12 -10 9 -16 -4
-7 -12 -7 -25 0 -23 12 -60 13 -60 2 0 -5 13 -32 28 -60 23 -42 28 -62 25
-102 -2 -38 1 -52 12 -56 8 -4 15 -12 15 -19 0 -7 15 -17 33 -21 l32 -7 -31
-11 c-21 -7 -29 -16 -26 -26 5 -13 3 -13 -11 -1 -11 9 -17 10 -17 2 0 -6 -4
-11 -10 -11 -5 0 -10 6 -10 14 0 19 -20 32 -29 18 -4 -7 -11 -4 -18 8 -10 14
-9 21 2 30 22 18 18 31 -15 64 -30 29 -38 46 -22 46 4 0 13 -5 19 -11 9 -9 11
-7 6 9 -3 12 -14 24 -24 27 -17 6 -20 11 -18 33 0 4 -9 9 -21 12 -20 5 -30 25
-12 25 4 0 16 6 27 12 19 11 19 12 -9 23 -27 10 -28 12 -12 29 9 9 13 20 10
24 -3 3 3 3 15 0 11 -3 26 -11 32 -19 14 -18 49 -18 49 -1 0 7 -13 21 -30 30
-16 10 -30 27 -30 37 0 10 -9 22 -20 25 -14 4 -21 16 -22 38 -1 18 -2 41 -2
52 -1 11 -9 21 -19 23 -12 3 -17 -3 -17 -22 0 -14 -9 -35 -20 -46 -11 -11 -20
-15 -20 -10 0 6 -4 10 -8 10 -5 0 -9 -15 -10 -32 0 -18 -3 -46 -6 -63 -2 -16
-5 -40 -5 -52 -1 -16 -6 -20 -21 -16 -15 4 -20 0 -20 -15 0 -11 -6 -23 -12
-26 -7 -3 -3 -3 10 0 21 5 22 4 10 -15 -7 -12 -23 -21 -36 -21 -22 0 -23 2
-18 65 4 54 3 63 -9 58 -8 -3 -15 -1 -15 5 0 5 7 13 15 16 14 5 14 8 -1 31 -9
14 -14 31 -11 38 3 7 -8 32 -23 54 -31 45 -31 78 1 88 19 6 27 25 10 25 -4 0
-6 24 -4 53 2 38 1 47 -6 32 -5 -11 -10 -14 -10 -7 -1 7 -24 -4 -54 -27 -114
-86 -247 -129 -413 -132 -85 -1 -91 -3 -86 -21 2 -10 -2 -24 -11 -31 -21 -17
-39 -84 -24 -91 7 -2 5 -5 -4 -5 -9 -1 -24 -11 -33 -23 l-17 -23 5 25 c5 32
25 87 43 123 21 41 12 52 -53 66 -233 51 -421 250 -486 516 -21 82 -22 85 -50
85 -16 0 -43 7 -60 16 -24 12 -36 14 -55 5 -32 -15 -43 -14 -37 3 3 7 -2 16
-10 19 -10 4 -16 1 -16 -7 0 -22 -34 -46 -58 -39 -12 3 -22 10 -22 16 0 6 3 7
7 4 3 -4 12 -2 20 5 11 9 11 14 -3 29 -10 11 -23 19 -30 19 -22 0 -64 -22 -58
-31 3 -5 -1 -6 -9 -3 -8 3 -23 -6 -35 -20 -16 -22 -25 -25 -52 -20 -17 4 -34
13 -37 20 -18 47 -23 -18 -23 -291 l0 -305 -275 0 -275 0 0 324 0 324 -22 6
c-38 10 -48 7 -48 -14 0 -36 -56 -29 -220 29 -25 8 -54 25 -65 37 -11 12 -30
24 -42 28 l-23 7 0 -370 0 -371 -270 0 -270 0 -1 1148 c0 841 -4 1159 -12
1192 -10 36 -19 48 -47 62 -72 37 -142 14 -202 -67 l-38 -50 0 -1142 0 -1143
-270 0 -270 0 0 1450 0 1450 270 0 269 0 3 -116 3 -116 80 72 c177 158 237
193 342 198 106 6 162 -16 241 -93 35 -34 71 -62 79 -61 9 0 27 11 39 24 13
12 30 22 39 22 8 0 15 4 15 9 0 5 8 12 18 15 9 3 25 20 34 37 10 16 22 28 28
24 6 -3 7 1 4 9 -4 9 -1 16 6 16 7 0 10 7 6 15 -3 9 3 19 15 26 24 13 36 5 21
-13 -7 -10 -4 -20 14 -41 l24 -28 122 3 123 3 7 161 c14 321 82 517 230 665
91 91 190 145 315 173 93 21 260 16 328 -10z m-2955 -264 l0 -270 -270 0 -270
0 0 270 0 270 270 0 270 0 0 -270z m4190 50 c0 -5 -2 -10 -4 -10 -3 0 -8 5
-11 10 -3 6 -1 10 4 10 6 0 11 -4 11 -10z m-528 -42 c-7 -7 -12 -8 -12 -2 0
14 12 26 19 19 2 -3 -1 -11 -7 -17z m1445 -140 c-3 -8 -6 -5 -6 6 -1 11 2 17
5 13 3 -3 4 -12 1 -19z m155 -140 l5 -32 -18 23 c-11 13 -16 27 -13 32 11 18
22 8 26 -23z m1018 -48 c0 -5 -9 -10 -20 -10 -11 0 -20 5 -20 10 0 6 9 10 20
10 11 0 20 -4 20 -10z m-220 -60 c0 -5 -4 -10 -10 -10 -5 0 -10 5 -10 10 0 6
5 10 10 10 6 0 10 -4 10 -10z m-860 -61 c0 -5 -4 -9 -10 -9 -5 0 -10 7 -10 16
0 8 5 12 10 9 6 -3 10 -10 10 -16z m1370 -54 c0 -8 -4 -15 -10 -15 -5 0 -10 7
-10 15 0 8 5 15 10 15 6 0 10 -7 10 -15z m92 -87 c-6 -6 -16 -7 -22 -3 -9 6
-9 9 1 16 17 10 34 0 21 -13z m-2142 -3 c0 -8 -9 -15 -20 -15 -11 0 -20 7 -20
15 0 8 9 15 20 15 11 0 20 -7 20 -15z m-2794 -35 c26 0 16 -44 -13 -57 -35
-17 -43 -16 -43 2 0 22 35 85 38 69 2 -8 10 -14 18 -14z m4971 -12 c-3 -8 -6
-5 -6 6 -1 11 2 17 5 13 3 -3 4 -12 1 -19z m-1789 -10 c-6 -18 -28 -21 -28 -4
0 9 7 16 16 16 9 0 14 -5 12 -12z m1917 -44 c24 -15 33 -52 18 -67 -11 -12
-33 15 -33 40 0 23 -3 25 -35 21 -19 -2 -35 -1 -35 2 0 25 51 27 85 4z m-85
-44 c0 -11 -4 -20 -10 -20 -5 0 -10 9 -10 20 0 11 5 20 10 20 6 0 10 -9 10
-20z m-6740 -1450 l0 -1450 -270 0 -270 0 0 1450 0 1450 270 0 270 0 0 -1450z
m7300 1414 c0 -8 -4 -12 -10 -9 -5 3 -10 10 -10 16 0 5 5 9 10 9 6 0 10 -7 10
-16z m-540 2 c0 -3 -4 -8 -10 -11 -5 -3 -10 -1 -10 4 0 6 5 11 10 11 6 0 10
-2 10 -4z m417 -2 c-3 -3 -12 -4 -19 -1 -8 3 -5 6 6 6 11 1 17 -2 13 -5z m313
-119 c10 -12 10 -19 2 -27 -15 -15 -43 8 -35 28 7 18 17 18 33 -1z m104 -63
c-11 -42 -24 -10 -15 38 1 2 5 0 11 -6 5 -5 7 -19 4 -32z m56 14 c0 -11 -19
-15 -25 -6 -3 5 1 10 9 10 9 0 16 -2 16 -4z m265 -306 c3 -5 1 -10 -4 -10 -6
0 -11 5 -11 10 0 6 2 10 4 10 3 0 8 -4 11 -10z m95 -20 c0 -5 -2 -10 -4 -10
-3 0 -8 5 -11 10 -3 6 -1 10 4 10 6 0 11 -4 11 -10z m17 -96 c-3 -3 -12 -4
-19 -1 -8 3 -5 6 6 6 11 1 17 -2 13 -5z m0 -50 c-3 -3 -12 -4 -19 -1 -8 3 -5
6 6 6 11 1 17 -2 13 -5z m21 -54 c8 -16 21 -30 30 -30 11 0 13 -3 6 -10 -15
-15 -37 -4 -51 27 -15 31 -16 43 -5 43 4 0 13 -13 20 -30z m212 -385 c0 -8 -9
-15 -20 -15 -11 0 -20 7 -20 15 0 8 9 15 20 15 11 0 20 -7 20 -15z m-60 -61
c0 -8 -4 -12 -10 -9 -5 3 -10 10 -10 16 0 5 5 9 10 9 6 0 10 -7 10 -16z m20
-314 c0 -5 -11 -10 -25 -10 -14 0 -25 5 -25 10 0 6 11 10 25 10 14 0 25 -4 25
-10z m-70 -110 c-11 -20 -30 -28 -30 -12 0 11 22 32 32 32 5 0 4 -9 -2 -20z
m22 -42 c-6 -6 -16 -7 -22 -3 -9 6 -9 9 1 16 17 10 34 0 21 -13z m-25 -60 c-3
-8 -6 -5 -6 6 -1 11 2 17 5 13 3 -3 4 -12 1 -19z m-134 -88 c3 -11 1 -23 -4
-26 -5 -3 -9 6 -9 20 0 31 6 34 13 6z m-45 -156 c-8 -9 -24 -14 -34 -11 -17 3
-16 5 6 15 36 16 47 14 28 -4z m-123 -74 c-3 -5 -10 -10 -16 -10 -5 0 -9 5 -9
10 0 6 7 10 16 10 8 0 12 -4 9 -10z m8 -27 c-7 -2 -19 -2 -25 0 -7 3 -2 5 12
5 14 0 19 -2 13 -5z m7 -43 c0 -5 -9 -10 -21 -10 -11 0 -17 5 -14 10 3 6 13
10 21 10 8 0 14 -4 14 -10z m63 -17 c3 -5 -1 -14 -9 -21 -12 -11 -14 -9 -14 8
0 20 14 27 23 13z m-8 -63 c3 -5 1 -10 -4 -10 -6 0 -11 5 -11 10 0 6 2 10 4
10 3 0 8 -4 11 -10z m-130 -80 c3 -5 1 -10 -4 -10 -6 0 -11 5 -11 10 0 6 2 10
4 10 3 0 8 -4 11 -10z m-88 -42 c3 6 9 10 14 7 4 -3 1 -21 -8 -39 -14 -31 -17
-32 -32 -17 -10 9 -15 26 -13 39 4 19 7 20 20 10 12 -10 16 -10 19 0z m-357
-278 c0 -5 -2 -10 -4 -10 -3 0 -8 5 -11 10 -3 6 -1 10 4 10 6 0 11 -4 11 -10z
m-264 -35 c-16 -9 -32 -13 -35 -10 -8 9 21 25 44 25 16 0 14 -3 -9 -15z m188
7 c2 -4 -12 -6 -32 -4 -56 5 -62 10 -15 11 23 1 44 -3 47 -7z m-527 -28 c3 -9
-3 -25 -16 -37 -17 -18 -21 -19 -21 -5 0 9 6 19 13 22 10 5 10 7 0 12 -18 8
-16 24 2 24 9 0 18 -7 22 -16z m43 -20 c0 -8 -4 -12 -10 -9 -5 3 -10 10 -10
16 0 5 5 9 10 9 6 0 10 -7 10 -16z m247 -6 c-3 -8 -6 -5 -6 6 -1 11 2 17 5 13
3 -3 4 -12 1 -19z m-2510 -20 c-3 -7 -5 -2 -5 12 0 14 2 19 5 13 2 -7 2 -19 0
-25z m2373 3 c0 -5 -9 -11 -19 -14 -14 -3 -18 -1 -14 9 6 15 33 19 33 5z
m-110 -11 c0 -5 -7 -10 -15 -10 -8 0 -15 5 -15 10 0 6 7 10 15 10 8 0 15 -4
15 -10z m157 -6 c-3 -3 -12 -4 -19 -1 -8 3 -5 6 6 6 11 1 17 -2 13 -5z m-210
-20 c-3 -3 -12 -4 -19 -1 -8 3 -5 6 6 6 11 1 17 -2 13 -5z m-2137 -138 c0 -2
-11 -6 -25 -8 -14 -3 -25 -1 -25 3 0 5 11 9 25 9 14 0 25 -2 25 -4z m-865
-386 c3 -5 -1 -10 -10 -10 -9 0 -13 5 -10 10 3 6 8 10 10 10 2 0 7 -4 10 -10z
m663 -80 c10 -48 10 -63 0 -80 -11 -17 -11 -22 1 -29 7 -5 9 -11 4 -14 -6 -4
-15 4 -20 16 -39 83 -49 133 -32 154 22 26 35 12 47 -47z m-738 -5 c10 -12 10
-15 -4 -15 -9 0 -16 7 -16 15 0 8 2 15 4 15 2 0 9 -7 16 -15z m-46 -50 c3 -9
0 -15 -9 -15 -8 0 -15 7 -15 15 0 8 4 15 9 15 5 0 11 -7 15 -15z m800 -140 c3
-9 0 -15 -9 -15 -8 0 -15 7 -15 15 0 8 4 15 9 15 5 0 11 -7 15 -15z m713 -87
c27 -25 28 -34 9 -54 -23 -23 -68 -16 -106 16 -19 17 -28 30 -21 30 7 0 19 7
27 15 22 22 64 18 91 -7z m-517 -144 c0 -8 -4 -12 -10 -9 -5 3 -10 10 -10 16
0 5 5 9 10 9 6 0 10 -7 10 -16z m155 -84 c3 -5 -3 -10 -15 -10 -12 0 -18 5
-15 10 3 6 10 10 15 10 5 0 12 -4 15 -10z m-4529 -1365 c324 -56 505 -311 533
-750 4 -66 5 -123 2 -127 -6 -7 -401 -48 -460 -48 l-31 0 0 83 c0 157 -33 285
-89 348 -30 34 -44 42 -81 46 -127 14 -180 -72 -180 -293 0 -234 48 -335 374
-794 354 -496 438 -666 467 -942 20 -195 -20 -445 -97 -604 -30 -60 -58 -98
-119 -159 -124 -125 -228 -170 -420 -181 -178 -11 -325 22 -446 101 -182 118
-277 358 -296 746 l-6 135 199 18 c109 10 220 20 245 23 l46 5 7 -133 c15
-297 79 -439 197 -439 128 0 189 94 197 305 5 146 -8 207 -78 351 -54 111
-104 188 -259 399 -306 416 -456 707 -492 954 -7 51 -10 141 -6 235 4 123 10
167 31 239 49 166 134 296 245 378 145 107 309 140 517 104z m8748 0 c327 -57
510 -314 534 -753 4 -68 5 -125 2 -127 -13 -8 -460 -47 -474 -42 -13 5 -16 23
-16 84 0 153 -33 282 -89 344 -30 34 -44 42 -81 46 -127 14 -180 -72 -180
-293 0 -229 58 -354 356 -770 157 -219 304 -442 361 -550 104 -196 144 -398
124 -630 -22 -254 -89 -423 -220 -555 -117 -117 -229 -164 -416 -175 -180 -11
-328 23 -447 103 -83 55 -126 103 -177 202 -72 139 -106 296 -118 544 l-6 137
29 0 c16 0 121 9 234 20 113 11 210 20 216 20 7 0 13 -43 17 -117 4 -74 11
-119 18 -122 8 -2 8 -6 1 -10 -17 -10 13 -158 45 -220 33 -64 65 -91 121 -98
55 -7 85 2 126 38 53 46 78 122 84 256 6 149 -12 230 -86 376 -64 125 -81 152
-232 357 -318 432 -462 702 -506 949 -17 101 -20 314 -4 401 38 210 135 382
269 481 145 107 310 140 515 104z m-6664 -280 l0 -255 -230 0 -230 0 0 -1425
0 -1425 -250 0 -250 0 0 1425 0 1425 -235 0 -235 0 0 255 0 255 715 0 715 0 0
-255z m1015 227 c294 -80 477 -282 547 -607 28 -131 36 -427 14 -553 -40 -228
-146 -431 -287 -548 l-36 -29 64 -300 c34 -165 108 -516 163 -780 55 -264 103
-488 106 -497 5 -17 -11 -18 -245 -18 -229 0 -250 1 -255 18 -3 9 -64 319
-136 687 -72 369 -133 678 -136 688 -4 12 -16 17 -45 17 l-39 0 0 -705 0 -705
-250 0 -250 0 0 1681 0 1681 353 -4 c322 -4 359 -6 432 -26z m1345 -1652 l0
-1680 -250 0 -250 0 0 1680 0 1680 250 0 250 0 0 -1680z m860 1095 c0 -322 4
-585 8 -585 9 0 43 97 291 820 l118 345 257 3 c141 1 256 1 256 -1 0 -2 -101
-250 -225 -553 l-225 -549 99 -440 c55 -242 168 -738 250 -1102 83 -364 153
-673 157 -687 l6 -26 -256 0 c-197 0 -258 3 -261 13 -2 6 -70 320 -150 697
-187 871 -176 823 -185 813 -4 -4 -37 -81 -73 -171 l-67 -162 0 -595 0 -595
-250 0 -250 0 0 1680 0 1680 250 0 250 0 0 -585z m2340 330 l0 -255 -315 0
-315 0 0 -450 0 -450 230 0 230 0 0 -250 0 -250 -57 0 c-32 -1 -136 0 -230 0
l-173 1 0 -471 0 -470 314 0 314 0 5 -92 c3 -51 6 -166 7 -256 l1 -162 -571 0
-570 0 0 963 c0 757 -3 966 -12 976 -10 11 -10 14 0 18 9 4 12 154 12 704 l0
699 565 0 565 0 0 -255z m2390 207 c0 -27 -16 -363 -35 -748 -19 -384 -44
-883 -55 -1109 -11 -225 -22 -443 -26 -483 l-6 -72 -143 0 -144 0 -5 53 c-3
28 -13 196 -21 372 -32 673 -95 1932 -98 1983 l-4 52 269 0 268 0 0 -48z
m-3605 -1362 c3 -5 -1 -10 -10 -10 -9 0 -13 5 -10 10 3 6 8 10 10 10 2 0 7 -4
10 -10z m-100 -10 c3 -5 1 -10 -4 -10 -6 0 -11 5 -11 10 0 6 2 10 4 10 3 0 8
-4 11 -10z m1687 -613 c-15 -7 -29 -6 -44 2 -22 11 -21 11 5 6 17 -3 26 -2 23
4 -4 5 3 7 16 3 l22 -5 -22 -10z m-188 -36 c3 -5 -1 -12 -10 -15 -20 -8 -29
-1 -19 13 8 13 22 14 29 2z m-67 -33 c-3 -8 -6 -5 -6 6 -1 11 2 17 5 13 3 -3
4 -12 1 -19z m153 -18 c0 -5 -4 -10 -10 -10 -5 0 -10 5 -10 10 0 6 5 10 10 10
6 0 10 -4 10 -10z m-720 -426 c0 -8 -4 -12 -10 -9 -5 3 -10 10 -10 16 0 5 5 9
10 9 6 0 10 -7 10 -16z m41 -17 c-13 -13 -26 -3 -16 12 3 6 11 8 17 5 6 -4 6
-10 -1 -17z m2779 -542 l0 -255 -245 0 -245 0 0 255 0 255 245 0 245 0 0 -255z"/>
<path d="M5866 10354 c-12 -11 -13 -20 -6 -34 14 -27 28 -33 56 -26 22 6 35
36 15 36 -5 0 -13 9 -16 20 -8 24 -28 26 -49 4z"/>
<path d="M7203 9735 c0 -22 2 -30 4 -17 2 12 2 30 0 40 -3 9 -5 -1 -4 -23z"/>
<path d="M6598 9723 c7 -3 16 -2 19 1 4 3 -2 6 -13 5 -11 0 -14 -3 -6 -6z"/>
<path d="M3096 9360 c-5 -25 -9 -52 -7 -61 1 -9 -10 -26 -24 -37 -22 -18 -23
-21 -8 -25 16 -4 16 -5 -2 -13 -11 -5 -44 -25 -73 -44 -50 -32 -53 -36 -48
-65 4 -16 12 -61 18 -98 9 -53 16 -72 34 -83 20 -14 26 -13 61 5 22 11 45 26
51 34 9 11 12 72 10 223 -2 160 -5 198 -12 164z"/>
<path d="M8190 9370 c0 -5 7 -10 15 -10 8 0 15 5 15 10 0 6 -7 10 -15 10 -8 0
-15 -4 -15 -10z"/>
<path d="M6264 9347 c-3 -9 -10 -15 -14 -12 -5 3 -11 2 -14 -3 -2 -4 6 -9 19
-10 28 -2 42 15 26 31 -7 7 -12 6 -17 -6z"/>
<path d="M6295 9298 c1 -13 3 -31 4 -40 1 -22 21 -24 21 -3 0 17 9 19 30 5 13
-9 13 -11 0 -19 -8 -6 -11 -13 -7 -18 5 -4 12 -1 17 7 7 12 12 12 22 2 17 -17
38 -15 38 3 0 10 7 15 18 13 11 -2 18 5 20 20 3 16 8 22 19 18 9 -4 13 -1 11
6 -6 17 -79 23 -88 7 -9 -14 -80 -4 -80 11 0 6 -6 10 -14 10 -8 0 -12 -9 -11
-22z m150 -18 c-3 -5 -15 -10 -26 -10 -10 0 -19 5 -19 10 0 6 12 10 26 10 14
0 23 -4 19 -10z"/>
<path d="M7837 9300 c3 -11 7 -20 9 -20 2 0 4 9 4 20 0 11 -4 20 -9 20 -5 0
-7 -9 -4 -20z"/>
<path d="M7920 9284 c0 -8 5 -12 10 -9 6 3 10 10 10 16 0 5 -4 9 -10 9 -5 0
-10 -7 -10 -16z"/>
<path d="M7995 9290 c-3 -5 -1 -10 4 -10 6 0 11 5 11 10 0 6 -2 10 -4 10 -3 0
-8 -4 -11 -10z"/>
<path d="M8672 9258 c-36 -22 -39 -30 -17 -48 12 -10 16 -8 24 13 6 14 17 30
27 35 9 5 12 12 7 15 -5 3 -23 -4 -41 -15z"/>
<path d="M6231 9254 c0 -11 3 -14 6 -6 3 7 2 16 -1 19 -3 4 -6 -2 -5 -13z"/>
<path d="M8028 9263 c7 -3 16 -2 19 1 4 3 -2 6 -13 5 -11 0 -14 -3 -6 -6z"/>
<path d="M8740 9193 c0 -5 4 -14 9 -22 8 -12 12 -12 25 -2 9 7 13 17 10 22 -6
11 -44 12 -44 2z"/>
<path d="M6356 9165 c-4 -12 -1 -16 11 -13 18 3 21 20 5 26 -5 1 -12 -4 -16
-13z"/>
<path d="M8770 9140 c0 -11 5 -20 10 -20 6 0 10 9 10 20 0 11 -4 20 -10 20 -5
0 -10 -9 -10 -20z"/>
<path d="M6100 9106 c0 -18 -67 -31 -85 -16 -9 8 -14 6 -19 -6 -10 -25 -7 -30
19 -42 41 -19 55 -15 96 27 32 31 36 40 23 45 -24 9 -34 7 -34 -8z"/>
<path d="M6160 9099 c0 -5 5 -7 10 -4 6 3 10 8 10 11 0 2 -4 4 -10 4 -5 0 -10
-5 -10 -11z"/>
<path d="M6218 9083 c7 -3 16 -2 19 1 4 3 -2 6 -13 5 -11 0 -14 -3 -6 -6z"/>
<path d="M8945 9031 c-3 -5 -1 -12 5 -16 5 -3 10 1 10 9 0 18 -6 21 -15 7z"/>
<path d="M8960 8960 c0 -5 5 -10 10 -10 6 0 10 5 10 10 0 6 -4 10 -10 10 -5 0
-10 -4 -10 -10z"/>
<path d="M9166 8785 c-11 -8 -17 -18 -13 -21 3 -3 16 3 28 15 26 24 14 28 -15
6z"/>
<path d="M9227 8723 c-14 -13 -6 -23 18 -23 18 0 23 4 19 15 -6 16 -26 20 -37
8z"/>
<path d="M9330 8499 c0 -11 4 -18 10 -14 5 3 7 12 3 20 -7 21 -13 19 -13 -6z"/>
<path d="M9455 8391 c-6 -11 9 -23 19 -14 9 9 7 23 -3 23 -6 0 -12 -4 -16 -9z"/>
<path d="M9420 8320 c0 -5 5 -10 10 -10 6 0 10 5 10 10 0 6 -4 10 -10 10 -5 0
-10 -4 -10 -10z"/>
<path d="M9360 8210 c0 -5 7 -10 15 -10 8 0 15 -4 15 -10 0 -5 7 -10 15 -10
18 0 19 12 3 28 -15 15 -48 16 -48 2z"/>
<path d="M9386 7984 c-9 -24 -7 -28 9 -14 17 14 20 30 6 30 -5 0 -12 -7 -15
-16z"/>
<path d="M9380 7920 c0 -5 7 -10 15 -10 8 0 15 5 15 10 0 6 -7 10 -15 10 -8 0
-15 -4 -15 -10z"/>
<path d="M9345 7851 c-3 -5 -1 -12 5 -16 5 -3 10 1 10 9 0 18 -6 21 -15 7z"/>
<path d="M9347 7784 c-7 -7 14 -44 24 -44 9 0 -1 39 -11 45 -4 2 -10 2 -13 -1z"/>
<path d="M9201 7684 c0 -11 3 -14 6 -6 3 7 2 16 -1 19 -3 4 -6 -2 -5 -13z"/>
<path d="M8910 7200 c0 -5 4 -10 9 -10 6 0 13 5 16 10 3 6 -1 10 -9 10 -9 0
-16 -4 -16 -10z"/>
<path d="M5258 7119 c-10 -5 -34 -11 -53 -13 -34 -2 -75 -26 -46 -26 7 0 9 -5
6 -10 -4 -6 -15 -8 -26 -5 -10 4 -19 2 -19 -2 0 -5 -25 -17 -56 -28 -50 -17
-54 -20 -38 -32 29 -22 91 -34 130 -27 46 9 100 55 114 100 14 43 11 56 -12
43z"/>
<path d="M8770 7096 c0 -9 5 -16 10 -16 6 0 10 4 10 9 0 6 -4 13 -10 16 -5 3
-10 -1 -10 -9z"/>
<path d="M5860 6910 c0 -5 4 -10 9 -10 6 0 13 5 16 10 3 6 -1 10 -9 10 -9 0
-16 -4 -16 -10z"/>
<path d="M7962 6879 c-14 -22 -10 -35 6 -25 12 7 23 46 13 46 -3 0 -12 -9 -19
-21z"/>
<path d="M8225 6870 c3 -5 8 -10 11 -10 2 0 4 5 4 10 0 6 -5 10 -11 10 -5 0
-7 -4 -4 -10z"/>
<path d="M7220 6854 c0 -17 17 -36 24 -26 3 5 -1 15 -9 22 -8 7 -15 9 -15 4z"/>
<path d="M5706 6573 c-11 -11 -6 -23 9 -23 8 0 15 4 15 9 0 13 -16 22 -24 14z"/>
<path d="M5628 6523 c7 -3 16 -2 19 1 4 3 -2 6 -13 5 -11 0 -14 -3 -6 -6z"/>
<path d="M5870 6189 c0 -5 5 -7 10 -4 6 3 10 8 10 11 0 2 -4 4 -10 4 -5 0 -10
-5 -10 -11z"/>
<path d="M6280 6000 c0 -19 3 -21 12 -12 9 9 9 15 0 24 -9 9 -12 7 -12 -12z"/>
<path d="M6160 5929 c0 -5 5 -7 10 -4 6 3 10 8 10 11 0 2 -4 4 -10 4 -5 0 -10
-5 -10 -11z"/>
<path d="M6330 5840 c0 -5 7 -10 16 -10 8 0 12 5 9 10 -3 6 -10 10 -16 10 -5
0 -9 -4 -9 -10z"/>
<path d="M4340 3245 l0 -495 38 0 c103 0 210 67 257 159 46 91 59 164 59 331
0 258 -52 397 -174 460 -32 16 -131 40 -167 40 -11 0 -13 -92 -13 -495z"/>
</g>
</svg>
